PathFileType	3	(X/Y/Z)	E:\ViconData\BIOM9541 2025\Week 7\Wed1100\Hanif  deep squat 2-5 Squat 01.trc
DataRate	CameraRate	NumFrames	NumMarkers	Units	OrigDataRate	OrigDataStartFrame	OrigNumFrames
200.0	200.0	13	19	mm	200.0	1	1338	
Frame#	Time	C7			CLAV			RBAK			LASI			RASI			LPSI			RPSI			LTHI			LKNE			LTIB			LANK			LHEE			LTOE			RTHI			RKNE			RTIB			RANK			RHEE			RTOE			
		X1	Y1	Z1	X2	Y2	Z2	X3	Y3	Z3	X4	Y4	Z4	X5	Y5	Z5	X6	Y6	Z6	X7	Y7	Z7	X8	Y8	Z8	X9	Y9	Z9	X10	Y10	Z10	X11	Y11	Z11	X12	Y12	Z12	X13	Y13	Z13	X14	Y14	Z14	X15	Y15	Z15	X16	Y16	Z16	X17	Y17	Z17	X18	Y18	Z18	X19	Y19	Z19	
1	0	305.74915	1321.704	-1208.2922	152.64233	1260.9298	-1200.0098	318.1311	1237.0886	-1352.3605	171.93391	879.96838	-1067.8556	160.6174	884.92712	-1327.7283	339.84198	943.35645	-1158.2604	337.25876	940.20697	-1233.172	247.63831	555.30237	-992.44781	276.66437	419.66849	-996.9281	304.5647	219.97481	-958.32312	310.29089	63.825218	-964.31879	328.75961	49.880058	-1022.7216	164.33276	37.438053	-930.89209	225.48434	727.53583	-1393.0648	273.16852	420.0618	-1405.6277	290.7959	333.54218	-1429.8749	303.30811	74.095459	-1430.7726	320.51181	49.50095	-1365.1082	163.74026	39.669285	-1474.4713
2	0.005	305.82861	1321.6808	-1208.3357	152.69522	1260.9772	-1200.1062	318.18787	1237.0576	-1352.4501	171.94403	880.0011	-1067.9448	160.67763	884.87402	-1327.7957	339.87991	943.26929	-1158.4994	338.15366	941.19653	-1233.9359	247.59268	555.36664	-992.48132	276.61526	419.7598	-996.92017	304.55191	220.01802	-958.34741	310.28885	63.84383	-964.40607	328.73184	49.843971	-1022.7969	164.29665	37.463409	-930.91492	225.55788	727.46582	-1393.1006	273.19971	419.95624	-1405.6166	290.83356	333.45749	-1429.863	303.30811	73.995346	-1430.7694	320.43707	48.608418	-1366.2809	163.78641	39.593739	-1474.5348
3	0.01	305.90186	1321.6847	-1208.3734	152.77795	1260.9822	-1200.1582	318.06607	1236.4098	-1355.3334	171.88191	880.06964	-1067.9545	160.72522	884.87598	-1327.8994	339.8931	943.24719	-1158.6431	337.35016	940.34698	-1233.2247	247.5331	555.42944	-992.4928	276.63617	419.76099	-997.00684	304.5498	220.056	-958.38739	310.27307	63.887009	-964.47577	328.6517	49.874973	-1022.8749	164.26822	37.471966	-930.88446	225.58662	727.46387	-1393.1503	273.21378	419.95398	-1405.6284	290.82486	333.45261	-1429.8707	303.28824	73.999596	-1430.7799	320.39722	48.573639	-1366.243	163.80518	39.601177	-1474.5789
4	0.015	305.9559	1321.6876	-1208.4418	152.8851	1260.9893	-1200.2104	318.09848	1236.3911	-1355.3894	171.89665	880.06604	-1068.0726	160.73949	884.94299	-1328.0026	339.86075	943.30811	-1158.519	338.14124	941.18121	-1233.962	247.5108	555.40131	-992.55396	276.61578	419.78577	-997.05438	304.55429	220.14803	-958.41565	311.04977	64.133812	-964.25159	328.6463	49.956699	-1022.9127	164.25957	37.461498	-930.84473	225.61877	727.51031	-1393.2256	273.19919	420.00626	-1405.6317	290.81018	333.49872	-1429.8706	303.22772	74.078484	-1430.7729	320.33139	48.562698	-1366.126	163.84453	39.696201	-1474.6858
5	0.02	306.05298	1321.6403	-1208.5718	152.98285	1260.9962	-1200.2449	318.14371	1236.4359	-1355.4187	171.8692	880.07642	-1068.1454	160.77835	884.99054	-1328.1027	339.82172	943.36145	-1158.4016	337.30066	940.16278	-1233.319	247.48497	555.39355	-992.63605	276.6088	419.78421	-997.12238	304.57098	220.17575	-958.45355	310.9296	64.168976	-964.26477	328.56979	50.035812	-1023.0112	164.25395	37.45108	-930.84198	225.67699	727.55347	-1393.2942	273.21249	420.03888	-1405.6426	290.80615	333.52744	-1429.8744	303.20383	74.117714	-1430.7697	320.40826	49.391487	-1365.0162	163.89697	39.731651	-1474.7552
6	0.025	306.12256	1321.5974	-1208.6561	153.05803	1261.0002	-1200.3262	318.2356	1236.4585	-1355.4664	171.82455	880.11859	-1068.199	160.83702	884.95514	-1328.1901	339.85092	943.39667	-1158.4684	337.29993	940.09113	-1233.3771	247.44881	555.44891	-992.66107	276.60492	419.84238	-997.18518	304.42456	219.11197	-959.55994	310.88446	64.197433	-964.35907	328.07086	49.713345	-1022.6593	164.27328	37.432907	-930.86481	225.75081	727.51184	-1393.3413	273.2543	419.98969	-1405.646	290.8295	333.4761	-1429.8816	303.2247	74.068703	-1430.7635	320.36261	49.364658	-1365.0337	163.97554	39.685383	-1474.8431
7	0.03	306.20468	1321.5315	-1208.7351	153.13188	1261.0143	-1200.386	318.31268	1236.3862	-1355.5504	171.80498	880.16516	-1068.2838	160.93399	884.83813	-1328.2345	339.87714	943.38074	-1158.6099	337.39853	940.21564	-1233.4569	247.41031	555.52759	-992.68365	276.57343	419.95114	-997.18646	304.46332	219.22935	-959.61328	310.85928	64.191124	-964.45514	328.07434	49.715481	-1022.774	164.27187	37.410732	-930.88812	225.83475	727.4212	-1393.374	273.26389	419.92447	-1405.6559	290.85672	333.3674	-1429.8748	303.22073	73.970139	-1430.7513	320.21002	48.630463	-1365.9569	164.06938	39.62043	-1474.9324
8	0.035	306.27484	1321.4697	-1208.7732	153.19327	1261.0093	-1200.4362	318.39545	1236.3418	-1355.6355	171.80231	880.18384	-1068.3418	160.9615	884.80615	-1328.2935	339.89246	943.37549	-1158.6945	337.40884	940.20569	-1233.4932	247.38907	555.5647	-992.7373	276.60193	419.97821	-997.26105	304.45401	219.23578	-959.65704	310.83881	64.193626	-964.5304	328.04669	49.742165	-1022.8699	164.23828	37.409653	-930.89081	225.88821	727.3551	-1393.4176	273.27216	419.84778	-1405.655	290.84772	333.3031	-1429.8629	303.2225	73.923904	-1430.7285	320.1926	48.602745	-1365.9214	164.13631	39.57132	-1474.9849
9	0.04	306.34042	1321.4561	-1208.7804	153.2397	1261.0093	-1200.4607	318.45425	1236.3049	-1355.6964	171.81422	880.14276	-1068.4597	160.99008	884.82098	-1328.3556	339.90701	943.39624	-1158.6113	338.14029	940.91803	-1234.123	247.40038	555.48724	-992.80182	276.61209	419.9389	-997.35876	304.47784	219.25471	-959.68927	310.79904	64.205719	-964.55206	328.02444	49.80341	-1022.9365	164.2234	37.399075	-930.86462	225.90636	727.4079	-1393.4666	273.23886	419.87271	-1405.6667	290.81308	333.29599	-1429.8719	303.19519	73.950928	-1430.7021	320.17023	48.590549	-1365.85	164.17543	39.630932	-1475.0632
10	0.045	306.41159	1321.4626	-1208.7856	153.3007	1261.0117	-1200.4791	318.49249	1236.302	-1355.6884	171.82307	880.09247	-1068.5448	161.01077	884.91357	-1328.4319	339.91449	943.39343	-1158.5048	337.39746	939.93738	-1233.6112	247.43268	555.43927	-992.87988	276.67221	419.86179	-997.44525	304.47913	219.21507	-959.70654	310.7522	64.207069	-964.5675	327.95197	49.894871	-1022.984	164.19511	37.395527	-930.78326	225.93129	727.45642	-1393.5085	273.2207	419.95062	-1405.6997	290.80176	333.36682	-1429.8877	303.16226	74.007629	-1430.6978	320.14685	48.566822	-1365.7467	164.2018	39.691322	-1475.104
11	0.05	306.4931	1321.4331	-1208.826	153.37294	1261.0284	-1200.505	318.59393	1236.3226	-1355.7307	171.85071	880.07288	-1068.6099	161.03972	884.9339	-1328.5055	339.96094	943.37427	-1158.6385	337.43167	939.93512	-1233.6687	247.4671	555.39203	-992.97021	276.69568	419.89771	-997.51038	304.51712	219.22974	-959.73267	310.73721	64.213051	-964.58978	327.90506	49.916416	-1023.0694	164.18817	37.42807	-930.77686	225.9754	727.4632	-1393.5876	273.20245	419.94275	-1405.7328	290.76926	333.36017	-1429.921	303.14459	74.035599	-1430.7021	320.12598	48.504761	-1365.7078	164.25856	39.738964	-1475.2086
12	0.055	306.59375	1321.4349	-1208.8732	153.47444	1261.0585	-1200.5485	319.12073	1236.8291	-1356.5973	171.87788	880.14124	-1068.6532	161.11914	884.86121	-1328.5796	340.02853	943.32709	-1158.9175	337.5545	940.12494	-1233.756	247.49429	555.45941	-993.03552	276.74051	419.93423	-997.58777	304.51987	219.28465	-959.75922	310.73517	64.190903	-964.74005	327.83331	49.888111	-1023.1532	164.18222	37.435436	-930.82629	226.03358	727.38068	-1393.6453	273.20316	419.85831	-1405.7845	290.79153	333.27594	-1429.9647	303.15903	73.917175	-1430.7064	320.1434	48.4487	-1365.8008	164.30502	39.663403	-1475.2815
13	0.06	306.69498	1321.4233	-1208.9644	153.56517	1261.0601	-1200.6006	319.23413	1236.8055	-1356.6398	171.92084	880.16663	-1068.7587	161.16649	884.7688	-1328.6375	340.0799	943.31049	-1159.2501	337.62244	940.17993	-1233.8444	247.52711	555.53357	-993.10052	276.76651	420.02655	-997.65021	304.5455	219.42056	-959.76251	310.74939	64.187988	-964.87604	327.78464	49.869701	-1023.2614	164.21068	37.45451	-930.93073	226.06311	727.31696	-1393.7256	273.19324	419.76221	-1405.8506	290.79102	333.20795	-1430.0236	303.18497	73.814301	-1430.7308	320.19	49.177315	-1364.9692	164.33412	39.632202	-1475.3521
